<svg width="97" height="96" viewBox="0 0 97 96" fill="none" xmlns="http://www.w3.org/2000/svg">
<path d="M94.4335 35.0301C92.4109 23.6417 86.5768 14.6265 76.9692 8.1385C68.1922 2.23031 58.2115 0.779243 47.9913 0.76262C43.6722 0.745303 39.3178 1.27448 35.0842 2.07863C21.9548 4.57211 12.1596 11.7755 6.0034 23.7457C2.0595 31.4464 1.19098 39.8294 0.901932 50.1253C1.20892 52.772 1.53108 57.2458 2.31337 61.6163C4.37121 73.0052 10.2218 82.0206 19.8287 88.4906C28.5899 94.3641 38.519 95.7472 48.7225 95.8844C53.4136 95.9357 58.1266 95.3892 62.7521 94.3474C75.2853 91.5471 84.6383 84.5466 90.6221 73.107C94.7026 65.2865 95.7271 56.7325 95.7401 48.1099C95.7602 43.7386 95.1993 39.3327 94.4335 35.0301ZM83.7718 71.2106C78.5505 80.2094 70.7785 85.5876 60.6619 87.6704C55.3932 88.7402 50.0071 89.1076 44.6427 88.7634C37.7891 88.3367 31.0878 87.1752 25.0861 83.5389C16.394 78.2796 11.1573 70.5963 9.18431 60.6417C8.3689 56.5441 7.85772 52.4291 7.96051 49.7313C8.01224 41.5013 8.69106 34.8396 11.4298 28.6273C16.0215 18.1782 23.9968 11.7755 35.0504 9.16429C40.6968 7.83236 46.4281 7.47357 52.1752 7.83236C59.4877 8.29366 66.6139 9.6249 72.9046 13.789C80.7801 19.0309 85.5579 26.3389 87.4957 35.542H59.6747C52.3961 35.542 46.4985 41.4834 46.4985 48.7748V52.9237C46.4985 60.2316 52.3994 66.1731 59.6747 66.1731H86.1015C85.4788 67.9197 84.699 69.6058 83.7718 71.2106ZM88.6857 52.0876C88.4995 55.1269 88.1759 58.1316 87.5468 61.0517H59.6768C55.221 61.0517 51.5993 57.3981 51.5993 52.9244V48.7755C51.6011 46.625 52.4526 44.5632 53.9671 43.0425C55.4815 41.5219 57.535 40.6667 59.6768 40.6647H88.3635C88.8021 44.4556 88.9099 48.2778 88.6857 52.0876Z" fill="#2A37AA"/>
<path d="M69.8099 50.858C69.8099 51.915 69.4979 52.9483 68.913 53.8272C68.328 54.7061 67.4968 55.391 66.5241 55.7955C65.5515 56.2001 64.4812 56.3058 63.4487 56.0996C62.416 55.8934 61.4677 55.3845 60.7232 54.6371C59.9788 53.8895 59.4718 52.9373 59.2664 51.9007C59.0611 50.8639 59.1665 49.7894 59.5694 48.8128C59.9722 47.8363 60.6545 47.0015 61.5299 46.4143C62.4052 45.8271 63.4343 45.5136 64.4871 45.5136C65.8972 45.5188 67.2482 46.0834 68.2453 47.0845C69.2425 48.0857 69.8049 49.4421 69.8099 50.858Z" fill="#2A37AA"/>
</svg>
