<svg width="99" height="96" viewBox="0 0 99 96" fill="none" xmlns="http://www.w3.org/2000/svg">
<path d="M96.7811 35.0382C94.7168 23.6326 88.7624 14.6172 78.9567 8.14593C69.9988 2.22113 59.8123 0.76937 49.3813 0.752747C44.9732 0.752747 40.529 1.28192 36.2081 2.08399C22.808 4.56017 12.8109 11.7657 6.52771 23.7517C2.50249 31.4524 1.61606 39.8361 1.32106 50.1315C1.63438 52.778 1.96317 57.2344 2.76161 61.623C4.86186 73.0112 10.8331 82.0266 20.6381 88.4806C29.5799 94.3541 39.7137 95.7534 50.1277 95.8738C54.9154 95.9431 59.7256 95.3959 64.4465 94.3541C77.2381 91.5538 86.784 84.5361 92.8911 73.0965C97.0558 65.2767 98.1014 56.7392 98.1147 48.0999C98.1352 43.7474 97.5627 39.3408 96.7811 35.0382ZM90.9148 52.0771C90.498 58.7534 89.3877 65.3065 85.8998 71.2174C80.5706 80.2161 72.6384 85.5945 62.3131 87.6606C56.8974 88.7529 51.4295 89.0943 45.9637 88.7687C38.9688 88.3422 32.1293 87.1813 26.0039 83.5442C17.1325 78.285 11.7879 70.6016 9.7742 60.647C8.94199 56.5495 8.42026 52.4171 8.52517 49.7367C8.57798 41.5068 9.27078 34.845 12.066 28.6328C16.7524 18.1837 24.8921 11.7636 36.1736 9.16966C41.9364 7.83772 47.7859 7.47963 53.6515 7.83772C61.1148 8.2817 68.3879 9.63026 74.8084 13.7944C82.9848 19.1214 87.8782 26.5666 89.8052 36.0087C90.8847 41.2946 91.2576 46.696 90.9148 52.0771Z" fill="#2B38AA"/>
<path d="M25.1167 58.3445V59.215H25.1688C25.1345 58.926 25.1172 58.6354 25.1167 58.3445ZM51.2563 39.6821H51.2731V39.6128C51.2595 39.6332 51.2536 39.6577 51.2563 39.6821ZM51.2563 39.6821H51.2731V39.6128C51.2595 39.6332 51.2536 39.6577 51.2563 39.6821Z" fill="white"/>
<path d="M65.5219 37.2067H56.0119V32.1359C56.0108 31.5157 55.7599 30.9213 55.3141 30.4826C54.8683 30.0441 54.264 29.7973 53.6335 29.7962H27.4772C27.1646 29.7953 26.8549 29.8551 26.5659 29.9724C26.277 30.0897 26.0145 30.262 25.7935 30.4794C25.5726 30.6969 25.3975 30.9552 25.2784 31.2395C25.1592 31.5237 25.0985 31.8284 25.0995 32.1359H25.1163V58.3453C25.1169 58.6362 25.1343 58.9269 25.1685 59.2158C25.3433 60.5614 25.9097 61.8284 26.7996 62.8644C27.6896 63.9005 28.865 64.6614 30.1843 65.0556C30.5189 66.1583 31.1274 67.1616 31.9551 67.9749C32.6158 68.6286 33.4015 69.1472 34.2667 69.5012C35.132 69.8551 36.0599 70.0373 36.9969 70.0373C37.934 70.0373 38.8619 69.8551 39.7271 69.5012C40.5924 69.1472 41.378 68.6286 42.0388 67.9749C42.7943 67.2367 43.3647 66.3356 43.7047 65.343H58.8036C59.1577 66.3331 59.7331 67.2324 60.487 67.9749C63.2647 70.7068 67.7771 70.7068 70.5716 67.9749C71.3982 67.1578 72.0117 66.1562 72.3599 65.0556C73.8213 64.6142 75.1014 63.7253 76.0132 62.5182C76.9251 61.3111 77.4213 59.8492 77.4293 58.3453V48.9199C77.4296 47.3815 77.1217 45.8582 76.5235 44.437C75.9251 43.0156 75.0479 41.7242 73.9422 40.6365C72.8364 39.5488 71.5237 38.686 70.079 38.0975C68.6342 37.509 67.0857 37.2064 65.5219 37.2067ZM38.6727 64.6656C38.2269 65.1002 37.6245 65.3441 36.9969 65.3441C36.3693 65.3441 35.767 65.1002 35.3212 64.6656C35.0966 64.4517 34.9181 64.1956 34.7962 63.9126C34.6742 63.6295 34.6114 63.3252 34.6114 63.0177C34.6114 62.7104 34.6742 62.406 34.7962 62.123C34.9181 61.8398 35.0966 61.5838 35.3212 61.37C36.2245 60.4481 37.715 60.4481 38.6557 61.3354C38.6557 61.3527 38.6727 61.3527 38.6727 61.37C39.1163 61.8073 39.3654 62.4 39.3654 63.0177C39.3654 63.6356 39.1163 64.2282 38.6727 64.6656ZM51.2756 39.6857H51.2587V60.6725H43.7047C43.3573 59.6889 42.7878 58.7957 42.0388 58.0599C41.2334 57.267 40.2463 56.6756 39.1606 56.3354C38.0748 55.9951 36.9219 55.9159 35.7987 56.1043C34.6755 56.2928 33.6145 56.7435 32.7047 57.4186C31.795 58.0936 31.0629 58.9733 30.5701 59.984C30.35 59.7696 30.1753 59.5143 30.0561 59.233C29.9368 58.9518 29.8754 58.65 29.8752 58.3453V34.475H51.2558V39.6829C51.2531 39.6586 51.2591 39.6341 51.2728 39.6136L51.2756 39.6857ZM67.2053 64.6656C66.9852 64.8846 66.7232 65.0586 66.4342 65.1773C66.1453 65.296 65.8354 65.3571 65.5223 65.3571C65.2092 65.3571 64.8992 65.296 64.6102 65.1773C64.3213 65.0586 64.0592 64.8846 63.8392 64.6656C63.6158 64.4496 63.4392 64.1917 63.3197 63.9069C63.2003 63.6222 63.1406 63.3167 63.1442 63.0088C63.147 62.5491 63.2873 62.1004 63.5478 61.7187C63.8082 61.337 64.1772 61.0391 64.6085 60.8626C65.04 60.6859 65.5147 60.6382 65.9736 60.7253C66.4324 60.8125 66.855 61.0307 67.1885 61.3527L67.1951 61.354L67.2006 61.3577L67.2043 61.3635L67.2053 61.37C67.4256 61.5862 67.6003 61.843 67.7195 62.1258C67.8388 62.4086 67.9001 62.7116 67.9001 63.0177C67.9001 63.3239 67.8388 63.627 67.7195 63.9097C67.6003 64.1925 67.4256 64.4494 67.2053 64.6656ZM72.6564 58.3481C72.656 58.6528 72.5944 58.9544 72.4752 59.2356C72.3558 59.5169 72.1813 59.7722 71.9614 59.9868C71.4698 58.9776 70.7402 58.0986 69.8335 57.423C68.9266 56.7472 67.8689 56.2945 66.7482 56.1025C65.6275 55.9104 64.4764 55.9844 63.3908 56.3186C62.3052 56.6526 61.3164 57.2371 60.5068 58.0232C60.5068 58.0405 60.4884 58.0405 60.4884 58.0572C59.7346 58.7891 59.1641 59.6836 58.8218 60.6698H56.0288V41.902H65.5219C66.4588 41.9019 67.3866 42.0833 68.2522 42.4359C69.1178 42.7884 69.9043 43.3054 70.5669 43.9571C71.2294 44.6088 71.7549 45.3825 72.1134 46.234C72.472 47.0855 72.6564 47.9982 72.6564 48.9199V58.3481Z" fill="#2B38AA"/>
</svg>
