<svg width="97" height="96" viewBox="0 0 97 96" fill="none" xmlns="http://www.w3.org/2000/svg">
<path d="M94.8672 35.0382C92.8446 23.6326 87.0105 14.6172 77.4029 8.14593C68.626 2.22113 58.6452 0.76937 48.425 0.752747C44.1059 0.752747 39.7514 1.28192 35.5178 2.08399C22.3886 4.56017 12.5933 11.7657 6.43709 23.7517C2.49321 31.4524 1.62468 39.8361 1.33563 50.1315C1.64261 52.778 1.96478 57.2344 2.74707 61.623C4.8049 73.0112 10.6555 82.0266 20.2625 88.4806C29.0236 94.3541 38.9527 95.7534 49.1563 95.8738C53.8472 95.9431 58.5603 95.3959 63.1858 94.3541C75.719 91.5538 85.072 84.5361 91.0558 73.0965C95.1363 65.2767 96.1608 56.7392 96.1738 48.0999C96.1939 43.7474 95.633 39.3408 94.8672 35.0382ZM89.1194 52.0771C88.7111 58.7534 87.6231 65.3065 84.2056 71.2174C78.984 80.2161 71.2123 85.5945 61.0956 87.6606C55.7891 88.7529 50.4318 89.0943 45.0764 88.7687C38.2227 88.3422 31.5215 87.1813 25.5199 83.5442C16.8277 78.285 11.591 70.6016 9.61801 60.647C8.8026 56.5495 8.29142 52.4171 8.3942 49.7367C8.44594 41.5068 9.12476 34.845 11.8635 28.6328C16.4552 18.1837 24.4305 11.7636 35.4841 9.16966C41.1305 7.83772 46.8618 7.47963 52.6089 7.83772C59.9213 8.2817 67.0476 9.63026 73.3384 13.7944C81.3496 19.1214 86.144 26.5666 88.0322 36.0087C89.0898 41.2946 89.4553 46.696 89.1194 52.0771Z" fill="#2A37AA"/>
<path d="M49.9923 54.3446C49.9294 54.0921 49.7983 53.862 49.6134 53.6796C49.4284 53.4973 49.1969 53.3698 48.9444 53.3112C46.0232 52.6336 43.0351 52.2886 40.037 52.2826H39.968C36.9466 52.2833 33.9349 52.6283 30.9909 53.3112C30.7303 53.3717 30.4921 53.5057 30.3046 53.6973C30.117 53.889 29.9878 54.1302 29.932 54.3931C28.6755 60.3192 28.6755 66.4444 29.932 72.3705C29.9988 72.6866 30.1714 72.9703 30.4213 73.1741C30.6711 73.3778 30.9829 73.4896 31.3048 73.4904H48.6271C48.9409 73.4904 49.2458 73.3849 49.4933 73.191C49.7406 72.9969 49.9162 72.7255 49.9923 72.4196C51.4654 66.4861 51.4654 60.2802 49.9923 54.3467V54.3446ZM37.5059 55.1903C38.3246 55.1349 39.1448 55.1075 39.9666 55.1079H40.0308C40.8296 55.1079 41.6281 55.1353 42.426 55.1903V57.6693C41.5919 57.8265 40.7448 57.9028 39.8962 57.8972C39.0943 57.8928 38.2943 57.8164 37.5059 57.6693V55.1903ZM47.5088 70.6631H32.4631C31.5689 65.7717 31.5832 60.7566 32.5052 55.8705C33.3928 55.6857 34.2864 55.5355 35.1859 55.4196V58.6015C35.1859 58.8604 35.2717 59.1118 35.4297 59.3163C35.5876 59.5209 35.8089 59.6668 36.0586 59.7312C37.3095 60.0518 38.5949 60.2175 39.886 60.2244H39.9666C41.2851 60.2243 42.5985 60.0583 43.876 59.7305C44.1257 59.6662 44.3471 59.5203 44.5051 59.3158C44.6631 59.1113 44.7489 58.8597 44.7487 58.6008V55.4147C45.6579 55.5334 46.5621 55.686 47.4613 55.8726C48.5414 60.7399 48.5581 65.7845 47.5102 70.6589L47.5088 70.6631Z" fill="#2A37AA"/>
<path d="M73.887 54.3452C73.8242 54.0926 73.6931 53.8625 73.5081 53.6801C73.3233 53.4979 73.0917 53.3703 72.8391 53.3118C69.9188 52.6351 66.9321 52.2908 63.9352 52.2853H63.8662C60.8449 52.286 57.8335 52.6311 54.8898 53.3139C54.629 53.3743 54.3908 53.5083 54.203 53.6999C54.0154 53.8915 53.886 54.133 53.8301 54.3958C52.5737 60.3218 52.5737 66.447 53.8301 72.3731C53.8976 72.6901 54.0715 72.9742 54.3226 73.1777C54.5739 73.3811 54.8872 73.4919 55.2099 73.491H72.5252C72.8391 73.4912 73.1441 73.3857 73.3914 73.1916C73.6389 72.9977 73.8145 72.7261 73.8904 72.4203C75.3647 66.4868 75.3647 60.2807 73.8904 54.3473L73.887 54.3452ZM61.4006 55.1909C62.2202 55.1356 63.0404 55.108 63.8613 55.1084H63.9255C64.7243 55.1084 65.5229 55.136 66.3214 55.1909V57.6698C65.4873 57.827 64.6402 57.9034 63.7916 57.8977C62.9894 57.8933 62.1893 57.817 61.4006 57.6698V55.1909ZM71.4035 70.6638H56.3585C55.4633 65.7725 55.4776 60.7571 56.4006 55.8711C57.2886 55.6864 58.182 55.5361 59.0806 55.4202V58.6021C59.0809 58.8611 59.1667 59.1125 59.3248 59.317C59.4829 59.5215 59.7043 59.6675 59.954 59.7319C61.2048 60.0524 62.4899 60.218 63.7807 60.225H63.8613C65.1798 60.2248 66.4932 60.059 67.7707 59.7312C68.0204 59.6669 68.2418 59.521 68.3998 59.3164C68.5578 59.1118 68.6436 58.8604 68.6434 58.6014V55.4154C69.5536 55.534 70.4579 55.6867 71.3567 55.8732C72.4371 60.7406 72.4536 65.7852 71.4049 70.6596L71.4035 70.6638Z" fill="#2A37AA"/>
<path d="M73.887 35.9655C73.8241 35.713 73.693 35.4828 73.508 35.3003C73.3231 35.1179 73.0917 34.9902 72.8391 34.9313C69.9188 34.2546 66.9322 33.9097 63.9352 33.9036H63.8662C60.8449 33.9044 57.8336 34.2492 54.8898 34.9313C54.6291 34.9921 54.3909 35.1261 54.2033 35.3177C54.0157 35.5093 53.8863 35.7505 53.8301 36.0133C52.5737 41.9393 52.5737 48.0645 53.8301 53.9907C53.8976 54.3076 54.0715 54.5917 54.3226 54.7951C54.5739 54.9987 54.8872 55.1094 55.2099 55.1086H72.5252C72.8391 55.1089 73.1439 55.0035 73.3914 54.8096C73.6388 54.6158 73.8145 54.3442 73.8904 54.0384C75.3647 48.105 75.3647 41.8988 73.8904 35.9655H73.887ZM61.4006 36.8113C62.2202 36.7557 63.0404 36.7281 63.8613 36.7281H63.9255C64.7243 36.7281 65.5229 36.7557 66.3214 36.8113V39.2874C65.4873 39.4443 64.6402 39.5204 63.7916 39.5146C62.9896 39.5104 62.1893 39.4343 61.4006 39.2874V36.8113ZM71.4035 52.2839H56.3585C55.4633 47.3925 55.4776 42.3769 56.4006 37.4906C57.2886 37.306 58.182 37.1559 59.0806 37.0404V40.2225C59.0807 40.4812 59.1667 40.7326 59.3248 40.9372C59.4829 41.1415 59.7043 41.2874 59.954 41.3515C61.2046 41.6726 62.4897 41.8385 63.7807 41.8453H63.8613C65.18 41.8449 66.4932 41.6787 67.7707 41.3508C68.0205 41.2867 68.2418 41.141 68.3998 40.9365C68.5579 40.7321 68.6436 40.4805 68.6434 40.2218V37.0357C69.5536 37.1543 70.4579 37.3068 71.3567 37.4934C72.4371 42.3607 72.4536 47.4055 71.4049 52.2798L71.4035 52.2839Z" fill="#2A37AA"/>
</svg>
