<svg width="96" height="96" viewBox="0 0 96 96" fill="none" xmlns="http://www.w3.org/2000/svg">
<g clip-path="url(#clip0_12_34)">
<path d="M94.2571 35.0382C92.2255 23.6326 86.3513 14.6172 76.7224 8.14593C67.9112 2.22113 57.8888 0.76937 47.6115 0.752747C43.2922 0.752747 38.921 1.28192 34.6529 2.08399C21.4707 4.56017 11.6367 11.7657 5.47293 23.7517C1.51105 31.4524 0.64041 39.8361 0.332881 50.1315C0.657034 52.778 0.98188 57.2344 1.76733 61.623C3.83069 73.0112 9.70493 82.0266 19.3519 88.4806C28.1284 94.3541 38.1162 95.7534 48.3444 95.8738C53.0737 95.9431 57.8037 95.3959 62.447 94.3541C75.0143 91.5538 84.4223 84.5361 90.4157 73.0965C94.5299 65.2767 95.5544 56.7392 95.5723 48.0999C95.589 43.7474 95.0253 39.3408 94.2571 35.0382ZM51.8276 7.83841C59.1695 8.28239 66.3231 9.63096 72.6233 13.7951C75.9022 15.9637 78.6347 18.4738 80.8538 21.3449L68.0651 29.5401L35.8969 8.89954C41.1562 7.78716 46.4832 7.51426 51.8276 7.83841ZM27.6843 11.4921C27.9176 11.8046 28.207 12.0709 28.5377 12.2775L61.7475 33.6038L48.0202 42.4141L15.1684 21.3442C18.4474 16.9902 22.6475 13.712 27.6843 11.4921ZM24.6112 83.5463C15.8888 78.2871 10.6441 70.6037 8.66321 60.6477C7.84383 56.5502 7.31396 52.4178 7.43448 49.7374C7.48504 41.5075 8.16797 34.8457 10.9177 28.6334C11.1394 28.1382 11.361 27.6436 11.618 27.165L44.6048 48.3188V88.7854C44.4857 88.7854 44.3658 88.768 44.2467 88.768C37.3827 88.3442 30.655 87.1833 24.6112 83.5463ZM88.4853 52.0778C88.076 58.7541 86.9664 65.3072 83.5343 71.2181C78.3091 80.2168 70.5066 85.5952 60.3311 87.6612C57.3999 88.2716 54.4259 88.6539 51.4355 88.8048V48.3188L64.1384 40.1748V50.0948C64.1512 50.992 64.5167 51.8482 65.1558 52.4782C65.7948 53.1083 66.6561 53.4615 67.5535 53.4615C68.4509 53.4615 69.3123 53.1083 69.9513 52.4782C70.5903 51.8482 70.9558 50.992 70.9686 50.0948V35.7891L84.4569 27.1312C85.7882 29.8456 86.762 32.817 87.3944 36.01C88.4559 41.2956 88.8227 46.6972 88.4853 52.0778Z" fill="#2B38AA"/>
</g>
<defs>
<clipPath id="clip0_12_34">
<rect width="96" height="96" fill="white"/>
</clipPath>
</defs>
</svg>
