<svg width="96" height="96" viewBox="0 0 96 96" fill="none" xmlns="http://www.w3.org/2000/svg">
<g clip-path="url(#clip0_12_36)">
<path d="M95.604 45.9925C95.4849 42.3215 94.9724 38.6332 94.3407 35.0301C93.7596 31.7352 92.855 28.6273 91.6089 25.7419C88.6035 18.6389 83.6519 12.7487 76.806 8.1385C67.9949 2.23031 57.9724 0.779243 47.6952 0.76262C43.3759 0.745303 39.0047 1.27448 34.7539 2.07863C21.5544 4.57211 11.7203 11.7755 5.55653 23.7456C3.29715 28.1322 2.03724 32.7424 1.31967 37.7964C0.773184 41.6213 0.551539 45.6848 0.414398 50.1253C0.738551 52.772 1.0634 57.2458 1.84884 61.6163C2.15247 63.3123 2.55723 64.9886 3.06096 66.6365C5.79063 75.6843 11.2569 83.009 19.4355 88.4912C28.2119 94.3648 38.1998 95.7479 48.428 95.8851C53.1573 95.9364 57.8873 95.3899 62.5306 94.3481C75.0979 91.5478 84.5059 84.5473 90.4993 73.1077C94.6136 65.2872 95.638 56.7332 95.6559 48.1106C95.6559 47.4088 95.638 46.692 95.604 45.9925ZM88.6714 49.4958C88.6549 50.3664 88.6209 51.2204 88.5689 52.0911C88.1596 58.7674 87.0666 65.3205 83.6179 71.214C78.3928 80.2129 70.5902 85.5911 60.4147 87.6739C55.125 88.7447 49.717 89.1123 44.331 88.7669C37.467 88.3402 30.7393 87.1787 24.6955 83.5424C19.7944 80.5847 16.0036 76.8791 13.2711 72.4221C14.7855 72.7346 16.3473 72.7404 17.8639 72.4394C18.4597 72.3249 19.0431 72.1532 19.606 71.9268C19.8276 71.841 20.0326 71.7557 20.2376 71.6533C25.8478 75.2665 32.3801 77.187 39.0531 77.1852C42.2062 77.1755 45.345 76.7626 48.3933 75.9566H48.4106C48.9052 76.9955 50.1345 77.5101 51.2615 77.1175L62.8555 73.0024C63.4374 72.7962 63.9135 72.3673 64.1791 71.8101C64.4447 71.2528 64.4781 70.613 64.272 70.031L62.7697 65.8309C62.6694 65.5435 62.5132 65.2789 62.3104 65.0521C62.1074 64.8252 61.8617 64.6407 61.5872 64.5092C61.3128 64.3776 61.0151 64.3016 60.7111 64.2855C60.4072 64.2693 60.1031 64.3134 59.8162 64.4151L48.2063 68.5475C47.6927 68.7271 47.2597 69.0835 46.9845 69.553C46.7093 70.0224 46.6098 70.5743 46.704 71.1102C43.0663 72.0321 38.2538 72.5647 32.8561 71.417C29.9719 70.8018 27.1974 69.7543 24.6262 68.3098C28.2805 64.0238 29.7995 57.0579 28.1781 49.7674C26.1798 40.8871 20.1525 34.228 13.5966 32.9813C12.2349 32.7001 10.8319 32.6827 9.46369 32.9301C9.87641 31.4621 10.3902 30.0245 11.0013 28.6273C15.5942 18.1782 23.6184 11.7755 34.7165 9.16429C40.3857 7.83236 46.1401 7.47357 51.9112 7.83235C59.2531 8.29366 66.4067 9.6249 72.7249 13.789C75.3707 15.5478 77.6641 17.5286 79.6049 19.7312C78.9505 20.0638 78.3517 20.4958 77.8296 21.0119C74.5348 24.0512 73.0144 30.0099 74.3297 36.3274C75.866 43.5155 80.6133 48.7948 85.5303 49.3213C86.316 49.4064 87.11 49.3718 87.8854 49.2188C88.1516 49.1627 88.4139 49.0884 88.6701 48.9964L88.6714 49.4958Z" fill="#2A37AA"/>
</g>
<defs>
<clipPath id="clip0_12_36">
<rect width="96" height="96" fill="white"/>
</clipPath>
</defs>
</svg>
