<svg width="96" height="96" viewBox="0 0 96 96" fill="none" xmlns="http://www.w3.org/2000/svg">
<g clip-path="url(#clip0_12_32)">
<path d="M94.2991 35.0389C92.2677 23.6333 86.3935 14.6179 76.7644 8.1459C67.9534 2.22179 57.931 0.770713 47.6536 0.754089C43.3344 0.754089 38.9632 1.28326 34.6951 2.08534C21.5129 4.56152 11.6788 11.767 5.51505 23.7531C1.55317 31.4365 0.682531 39.8368 0.375 50.1327C0.699154 52.7794 1.024 57.2358 1.80945 61.6237C3.87489 73.0119 9.74913 82.0273 19.3962 88.482C28.1725 94.3555 38.1604 95.7546 48.3885 95.8752C53.1178 95.9444 57.8478 95.3973 62.4913 94.3555C75.0585 91.5552 84.4665 84.5375 90.46 73.0979C94.5742 65.2772 95.5986 56.7406 95.6166 48.1006C95.6312 43.7473 95.0673 39.3415 94.2991 35.0389ZM84.5018 27.1338L69.2036 32.1901C67.5827 32.7299 65.8184 32.6418 64.2595 31.943C62.7005 31.2443 61.4607 29.9857 60.7853 28.4166C59.5226 25.5138 60.4099 22.1496 63.0225 20.1867L71.7269 13.2021C72.0511 13.3898 72.3585 13.5949 72.6655 13.7999C78.0104 17.333 81.9204 21.7908 84.5018 27.1338ZM8.70534 60.6477C7.88594 56.5501 7.35608 52.4178 7.47659 49.7373C7.52717 41.4901 8.2101 34.8456 10.9599 28.6161C11.1469 28.1721 11.3519 27.7454 11.5562 27.3354H24.841C25.7529 27.3348 26.6279 27.6957 27.2743 28.3389C27.9207 28.9823 28.2858 29.8555 28.2897 30.7675V30.9898C28.2897 36.6582 32.8991 41.2685 38.5683 41.2685H40.2079C41.1213 41.2722 41.9962 41.6369 42.6421 42.2827C43.2881 42.9287 43.6526 43.8036 43.6565 44.7171V47.3837C43.6561 48.2983 43.2927 49.1754 42.646 49.8221C41.9993 50.4689 41.1224 50.8326 40.2079 50.833C34.5393 50.833 29.929 55.4425 29.929 61.1118V61.5211C29.9288 62.4358 29.5652 63.313 28.9184 63.9598C28.2716 64.6065 27.3945 64.97 26.4797 64.9704H9.83571C9.36689 63.5552 8.98932 62.1113 8.70534 60.6477ZM45.7052 80.1661V88.838C45.2273 88.8213 44.7667 88.804 44.2888 88.7687C37.4248 88.3413 30.6972 87.1805 24.6532 83.5435C19.531 80.4562 15.5979 76.5414 12.8542 71.7991H26.4797C32.149 71.7991 36.7585 67.1896 36.7585 61.5204V61.1111C36.7622 60.1974 37.1267 59.3222 37.7728 58.676C38.4189 58.0299 39.2941 57.6654 40.2079 57.6618C45.8763 57.6618 50.4865 53.0516 50.4865 47.383V44.7171C50.4865 39.0485 45.8763 34.4384 40.2079 34.4384H38.5683C37.6538 34.4387 36.7765 34.076 36.1294 33.4299C35.4822 32.7837 35.1181 31.9071 35.1169 30.9924V30.7701C35.1169 25.1189 30.506 20.5088 24.8383 20.5088H15.8617C20.5023 14.7716 26.8232 11.0155 34.6765 9.1717C40.3456 7.83975 46.1 7.48097 51.871 7.83975C56.2763 8.11265 60.6301 8.69308 64.7617 10.0423L58.8196 14.789C56.5398 16.5165 54.8589 18.9149 54.0127 21.6472C53.1666 24.3796 53.1981 27.3084 54.1027 30.0219C55.0072 32.7353 56.7393 35.0972 59.0557 36.7754C61.372 38.4534 64.156 39.3635 67.0162 39.3775C68.4892 39.3686 69.952 39.1324 71.3529 38.6773L86.8568 33.5366C87.0791 34.3394 87.2669 35.1587 87.4379 35.9954C88.4221 40.8763 88.8063 45.8591 88.5814 50.833H72.4778C66.298 50.833 61.2771 55.8525 61.2771 62.0337V64.5965C61.2747 65.7549 60.8135 66.8651 59.9943 67.6842C59.1752 68.5034 58.065 68.9646 56.9066 68.967C50.7254 68.9656 45.7052 73.9858 45.7052 80.1661ZM83.5765 71.2193C78.3513 80.2175 70.5487 85.5964 60.3731 87.6619C57.7881 88.1984 55.1694 88.5578 52.5354 88.7375V80.1661C52.5351 79.5921 52.6481 79.0236 52.8678 78.4931C53.0874 77.9627 53.4095 77.4808 53.8155 77.0748C54.2215 76.6689 54.7036 76.347 55.2341 76.1276C55.7646 75.908 56.3331 75.7952 56.9073 75.7956C63.0876 75.7956 68.1078 70.7588 68.1078 64.5951V62.0323C68.1101 60.8737 68.5713 59.7634 69.3903 58.944C70.2095 58.1248 71.3199 57.6635 72.4785 57.6611H87.9823C87.3153 62.3918 86.0346 66.9679 83.5765 71.2193Z" fill="#2A37AA"/>
</g>
<defs>
<clipPath id="clip0_12_32">
<rect width="96" height="96" fill="white"/>
</clipPath>
</defs>
</svg>
